<svg xmlns="http://www.w3.org/2000/svg" xmlns:xlink="http://www.w3.org/1999/xlink" width="214" height="215.341" viewBox="0 0 214 215.341">
  <defs>
    <linearGradient id="linear-gradient" x1="-0.143" y1="0.634" x2="1.158" y2="0.363" gradientUnits="objectBoundingBox">
      <stop offset="0" stop-color="#ff9f55"/>
      <stop offset="1" stop-color="#ffd255"/>
    </linearGradient>
    <linearGradient id="linear-gradient-2" x1="0" y1="0.5" x2="1" y2="0.5" xlink:href="#linear-gradient"/>
  </defs>
  <g id="about_image" transform="translate(0.019)">
    <g id="Слой_1" data-name="Слой 1" transform="translate(-0.019)">
      <g id="Group_85" data-name="Group 85" transform="translate(80.999 197.295)">
        <path id="Path_39" data-name="Path 39" d="M729.569,1632.12c0,1.1-9.731,1.99-21.734,1.99s-21.735-.89-21.735-1.99,9.731-1.99,21.735-1.99S729.569,1631.021,729.569,1632.12Z" transform="translate(-686.1 -1630.13)" fill="url(#linear-gradient)"/>
      </g>
      <g id="Group_86" data-name="Group 86" transform="translate(157.602 195.563)">
        <ellipse id="Ellipse_10" data-name="Ellipse 10" cx="21.734" cy="1.99" rx="21.734" ry="1.99" fill="url(#linear-gradient-2)"/>
      </g>
      <path id="Path_40" data-name="Path 40" d="M742.645,371.26H661.207c-20.889,1.39-20.8,24.4-20.8,24.4h0V505.618h81.542V395.661S722.338,372.574,742.645,371.26Z" transform="translate(-565.031 -328.814)" fill="#e8913a"/>
      <rect id="Rectangle_26" data-name="Rectangle 26" width="0.984" height="84.629" transform="translate(69.675 68.238)" fill="#ffc155"/>
      <path id="Path_41" data-name="Path 41" d="M1003.779,69.788H954V42.19h49.786Zm-48.8-.984H1002.8V43.174H954.984Z" transform="translate(-840.047 -40.222)" fill="#71bfe2"/>
      <path id="Path_42" data-name="Path 42" d="M247.081,252.773H197.3v-34.7h49.781Zm-48.8-.984H246.1V219.054H198.284Z" transform="translate(-176.426 -194.468)" fill="#e5657e"/>
      <path id="Path_43" data-name="Path 43" d="M1392.944,751.942H1343.16v-27.7h49.784Zm-48.8-.984h47.816V725.224h-47.816Z" transform="translate(-1181.338 -638.375)" fill="#ffc155"/>
      <path id="Path_44" data-name="Path 44" d="M716.175,359.13c-20.306,1.312-20.693,24.4-20.693,24.4V493.487H613.94V383.531s-.092-23.011,20.8-24.4Z" transform="translate(-541.816 -318.176)" fill="#fff9f5"/>
      <rect id="Rectangle_27" data-name="Rectangle 27" width="56.008" height="4.942" transform="translate(82.831 69.678)" fill="#ffdc94"/>
      <rect id="Rectangle_28" data-name="Rectangle 28" width="47.824" height="3.501" transform="translate(82.831 81.107)" fill="#ffdc94"/>
      <rect id="Rectangle_29" data-name="Rectangle 29" width="24.04" height="5.199" transform="translate(82.831 90.347)" fill="#ffdc94"/>
      <rect id="Rectangle_30" data-name="Rectangle 30" width="24.864" height="5.199" transform="translate(113.975 90.347)" fill="#ffdc94"/>
      <rect id="Rectangle_31" data-name="Rectangle 31" width="38.299" height="3.706" transform="translate(82.831 100.36)" fill="#ffdc94"/>
      <rect id="Rectangle_32" data-name="Rectangle 32" width="43.152" height="2.059" transform="translate(82.831 109.626)" fill="#ffdc94"/>
      <rect id="Rectangle_33" data-name="Rectangle 33" width="51.89" height="2.059" transform="translate(82.831 118.892)" fill="#ffdc94"/>
      <path id="Path_45" data-name="Path 45" d="M723.9,1078.265H699.49V1066.57H723.9Zm-24.04-.369H723.53V1066.94H699.859Z" transform="translate(-616.844 -938.597)" fill="#ffdc94"/>
      <rect id="Rectangle_34" data-name="Rectangle 34" width="21.827" height="2.677" transform="translate(112.894 128.158)" fill="#ffdc94"/>
      <rect id="Rectangle_35" data-name="Rectangle 35" width="15.47" height="2.677" transform="translate(112.894 133.821)" fill="#ffdc94"/>
      <rect id="Rectangle_36" data-name="Rectangle 36" width="46.665" height="2.059" transform="translate(82.831 146.69)" fill="#ffdc94"/>
      <rect id="Rectangle_37" data-name="Rectangle 37" width="24.58" height="2.059" transform="translate(82.831 155.956)" fill="#ffdc94"/>
      <path id="Path_46" data-name="Path 46" d="M1429.8,827.68l-2.41-3.936a.685.685,0,0,1,1.169-.714l1.7,2.784,4.52-2.675a.685.685,0,0,1,.7,1.18Z" transform="translate(-1255.127 -724.748)" fill="#ffca55"/>
      <path id="Path_47" data-name="Path 47" d="M1399.031,789.067a8.649,8.649,0,1,1,8.646-8.648A8.648,8.648,0,0,1,1399.031,789.067Zm0-16.062a7.414,7.414,0,1,0,7.416,7.414A7.414,7.414,0,0,0,1399.031,773Z" transform="translate(-1222.75 -680.059)" fill="#ffca55"/>
      <path id="Path_48" data-name="Path 48" d="M984.97,86.71l.17,3.634,1.443-.066-.284-6.1-6.227.289.067,1.443,3.764-.175-6.635,7.283-6.9-6.291L969.39,87.8l7.972,7.262Z" transform="translate(-850.147 -73.825)" fill="#71bfe2"/>
      <path id="Path_49" data-name="Path 49" d="M263.811,275.988a3.28,3.28,0,0,0-.622-.508,7.224,7.224,0,0,0-.952-.521,7.789,7.789,0,0,0-1.187-.427,6.822,6.822,0,0,0-1.329-.229l-.016,4.872.447.1a20.668,20.668,0,0,1,2.293.69,6.533,6.533,0,0,1,1.722.924,3.744,3.744,0,0,1,1.09,1.332,4.319,4.319,0,0,1,.387,1.92,4.588,4.588,0,0,1-.455,2.128,4.148,4.148,0,0,1-1.24,1.467,5.55,5.55,0,0,1-1.845.876,8.929,8.929,0,0,1-2.249.311l0,2.475H258.63l.007-2.519a11.829,11.829,0,0,1-3.221-.682,10.127,10.127,0,0,1-2.8-1.55l1.208-2.261a4.146,4.146,0,0,0,.75.615,8.688,8.688,0,0,0,1.151.638,10.682,10.682,0,0,0,1.447.546,9.2,9.2,0,0,0,1.634.335l.016-4.871a2.9,2.9,0,0,0-.294-.084,3.052,3.052,0,0,1-.294-.084,19.707,19.707,0,0,1-2.175-.7,5.411,5.411,0,0,1-1.538-.888,3.444,3.444,0,0,1-.926-1.214,4.025,4.025,0,0,1-.317-1.686,4.956,4.956,0,0,1,.407-2.047,4.49,4.49,0,0,1,1.134-1.538,5.4,5.4,0,0,1,1.71-1.006,7.945,7.945,0,0,1,2.161-.453l.007-2.376h1.224l-.007,2.378a9.014,9.014,0,0,1,2.82.627,10.2,10.2,0,0,1,2.279,1.255Zm-7.769.587a1.718,1.718,0,0,0,.689,1.485,6.521,6.521,0,0,0,2.1.877l.015-4.636a3.417,3.417,0,0,0-2.121.664A2.035,2.035,0,0,0,256.042,276.575Zm6.776,7.836a1.752,1.752,0,0,0-.819-1.568,8.76,8.76,0,0,0-2.3-.961l-.019,4.661a4.289,4.289,0,0,0,2.32-.557A1.787,1.787,0,0,0,262.818,284.411Z" transform="translate(-224.941 -239.633)" fill="#e5657e"/>
      <rect id="Rectangle_38" data-name="Rectangle 38" width="19.536" height="2.78" transform="translate(46.333 33.491)" fill="#ded4ce"/>
      <rect id="Rectangle_39" data-name="Rectangle 39" width="15.355" height="2.78" transform="translate(46.333 39.564)" fill="#ded4ce"/>
      <rect id="Rectangle_40" data-name="Rectangle 40" width="17.229" height="2.78" transform="translate(46.333 45.637)" fill="#ded4ce"/>
      <rect id="Rectangle_41" data-name="Rectangle 41" width="13.959" height="2.78" transform="translate(188.516 95.289)" fill="#ded4ce"/>
      <rect id="Rectangle_42" data-name="Rectangle 42" width="15.662" height="2.78" transform="translate(188.516 101.363)" fill="#ded4ce"/>
      <rect id="Rectangle_43" data-name="Rectangle 43" width="17.76" height="2.78" transform="translate(140.64 8.304)" fill="#ded4ce"/>
      <rect id="Rectangle_44" data-name="Rectangle 44" width="13.959" height="2.78" transform="translate(140.64 14.377)" fill="#ded4ce"/>
      <rect id="Rectangle_45" data-name="Rectangle 45" width="15.662" height="2.78" transform="translate(140.64 20.45)" fill="#ded4ce"/>
      <path id="Path_50" data-name="Path 50" d="M1313.721,945.838H1298.61v-.984h14.127v-16.8h.984Z" transform="translate(-1138.87 -813.894)" fill="#ded4ce"/>
      <path id="Path_51" data-name="Path 51" d="M826.034,260.089h-.984v-4.917h32.74V251.75h.984v4.406H826.034Z" transform="translate(-723.561 -220.783)" fill="#ded4ce"/>
      <path id="Path_52" data-name="Path 52" d="M412.866,524.858h-17.2V487.79h.984v36.084h16.212Z" transform="translate(-346.998 -427.789)" fill="#ded4ce"/>
      <path id="Path_53" data-name="Path 53" d="M1319.328,436.193h-.984V425c-.014-.185-1.208-21.681,16.933-24.809l.168.971c-17.279,2.979-16.131,23.6-16.114,23.807Z" transform="translate(-1159.556 -354.186)" fill="#ffc155"/>
      <path id="Path_54" data-name="Path 54" d="M1587.58,699.381h-.984V680.414H1566.24v-.984h21.34Z" transform="translate(-1373.58 -595.856)" fill="#ffc155"/>
      <path id="Path_55" data-name="Path 55" d="M167.491,366.842H148.12V348.59h.984v17.268h18.387Z" transform="translate(-129.898 -305.711)" fill="#e83451"/>
      <path id="Path_56" data-name="Path 56" d="M909.044,14.377h-.984V0h24.033V.984H909.044Z" transform="translate(-796.36)" fill="#3bb8fa"/>
      <path id="Path_57" data-name="Path 57" d="M1176.875,1266.553H1159.24v-.984h16.651V1238.88h.984Z" transform="translate(-1016.644 -1086.489)" fill="#ffc155"/>
      <path id="Path_58" data-name="Path 58" d="M1398.868,1601.751a5.714,5.714,0,0,1-2.337,1.476c-1.176.257-2,.582-2.011,1.281s3.39,1.16,4.739.455c2.012-1.052,2.214-.738,2.44-1.261s-.268-1.932-.254-2.1C1401.467,1601.393,1398.868,1601.751,1398.868,1601.751Z" transform="translate(-1226.381 -1407.759)" fill="#202338"/>
      <path id="Path_59" data-name="Path 59" d="M1430,1596.093a4.631,4.631,0,0,0-.13.583c.023.012,2.654.307,2.576-.151-.065-.369-.157-.775-.157-.775Z" transform="translate(-1257.382 -1402.684)" fill="#2f6b8c"/>
      <path id="Path_60" data-name="Path 60" d="M1508.591,1605.242a4.12,4.12,0,0,1-2,1.461c-1.143.274-1.855.784-1.91,1.464s2.655,1.569,4.559.369c1.251-.783,1.722-.738,1.968-1.237s-.132-1.9-.106-2.058A10.933,10.933,0,0,0,1508.591,1605.242Z" transform="translate(-1322.993 -1410.932)" fill="#202338"/>
      <path id="Path_61" data-name="Path 61" d="M1536.485,1599.529a5.267,5.267,0,0,0-.035.587c.021.013,2.53.457,2.516,0a3.5,3.5,0,0,0-.16-.806Z" transform="translate(-1350.852 -1405.807)" fill="#2f6b8c"/>
      <path id="Path_62" data-name="Path 62" d="M1431.813,1301.713s-1.219,8.856-1.722,11.848c-.582,3.5-.78,6.4-.942,8.2-.2,2.278-.091,13.938-.234,14.6s2.882.32,2.882.32,2.214-15.2,2.829-17.627c.566-2.26,2.123-11.574,2.64-10.957s2.19,11.228,2.573,13.009,1.932,15.8,1.932,15.8,2.571.558,3.273,0c0,0-.157-12.508-.4-15.849-.093-1.273.806-15.242-1.353-20.875C1442.159,1297.221,1431.813,1301.713,1431.813,1301.713Z" transform="translate(-1256.541 -1142.592)" fill="#323657"/>
      <path id="Path_63" data-name="Path 63" d="M1450.677,1323.229l-.137,1.33s3.713,1.5,12.754,1.506v-1.522Z" transform="translate(-1275.51 -1163.686)" fill="#945aa0"/>
      <path id="Path_64" data-name="Path 64" d="M1335.291,1187.21s-.541,1.195-.861,1.269-.7.473-.976.6-1.141.19-1.373.416a8.591,8.591,0,0,1-.671,1.057c-.214.167-.684.453-.538.633s.636.037.636.037a.352.352,0,0,0-.1.37c.155.385.413.4.413.4s-.082.29.022.433a.694.694,0,0,0,.482.324.66.66,0,0,0,.223.4.593.593,0,0,0,.576.1s.257.355.492.285a2.178,2.178,0,0,0,.544-.351,8.122,8.122,0,0,0,1.788-2.744,9.791,9.791,0,0,1,1.192-2.312Z" transform="translate(-1170.536 -1044.397)" fill="#eea886"/>
      <path id="Path_65" data-name="Path 65" d="M1369,1163.51s4.2,1.911,5.7,1.543a6.216,6.216,0,0,0,2.46-2.242c.285-.369.564-.757.83-1.14h0c1.059-1.53,1.891-3,1.891-3s3.133-3.672.615-5.309a1.672,1.672,0,0,0-1.75.556,16.109,16.109,0,0,0-2.042,3.257c-.219.48-3.3,4.921-3.457,5.017s-1.5-.253-2.583-.343c-1.759-.147-1.41-.221-1.41-.221Z" transform="translate(-1204 -1014.658)" fill="#945aa0"/>
      <path id="Path_66" data-name="Path 66" d="M1447.339,1146.422a20.815,20.815,0,0,0-3.608,1.006c-.416.36-1.149,3.895-1.193,4.879a37.977,37.977,0,0,0,.8,6.625c.414,1.531-.546,8.047.224,9.121a34.423,34.423,0,0,0,13.039,1.3s-1.37-6.15-1.114-8.241c.327-2.688,1.114-8.879,1.114-8.879s-.852-4.17-1.421-4.651-4.521-1.263-4.521-1.263Z" transform="translate(-1268.488 -1008.537)" fill="#945aa0"/>
      <path id="Path_67" data-name="Path 67" d="M1540,1215.55s.615,3.965.567,4.218S1543.321,1218.972,1540,1215.55Z" transform="translate(-1353.966 -1069.252)" fill="#b86c1f"/>
      <path id="Path_68" data-name="Path 68" d="M1582.174,1311.721l2.8-4.651a1.665,1.665,0,0,0-.567-2.287l-7.021-4.23a1.666,1.666,0,0,0-2.287.567l-2.8,4.651a1.667,1.667,0,0,0,.567,2.287l7.021,4.23a1.667,1.667,0,0,0,2.289-.567Z" transform="translate(-1382.08 -1143.589)" fill="#c4b4af"/>
      <rect id="Rectangle_46" data-name="Rectangle 46" width="9.389" height="55.968" transform="translate(198.804 158.706) rotate(121.07)" fill="#eb4747"/>
      <rect id="Rectangle_47" data-name="Rectangle 47" width="3.129" height="55.968" transform="translate(149.252 132.504) rotate(-58.93)" fill="#cc324f"/>
      <rect id="Rectangle_48" data-name="Rectangle 48" width="3.129" height="55.968" transform="translate(197.189 161.384) rotate(121.07)" fill="#e83451"/>
      <rect id="Rectangle_49" data-name="Rectangle 49" width="3.129" height="55.968" transform="translate(195.574 164.069) rotate(121.07)" fill="#ea6868"/>
      <path id="Path_69" data-name="Path 69" d="M1124.12,1043.781l4.845-8.042-10.878-2.195-2.8-.565,1.807,2.209Z" transform="translate(-978.1 -905.917)" fill="#eddad3"/>
      <path id="Path_70" data-name="Path 70" d="M1241,1084.28a1.566,1.566,0,0,0,1.615-2.68Z" transform="translate(-1091.744 -951.778)" fill="#deccc6"/>
      <path id="Path_71" data-name="Path 71" d="M1227.83,1106.07a1.566,1.566,0,0,0,1.615-2.68Z" transform="translate(-1080.193 -970.888)" fill="#e3d1ca"/>
      <path id="Path_72" data-name="Path 72" d="M1214.7,1127.881a1.566,1.566,0,0,0,1.615-2.682Z" transform="translate(-1068.679 -990.015)" fill="#eddad3"/>
      <rect id="Rectangle_50" data-name="Rectangle 50" width="3.129" height="3.439" transform="translate(195.894 160.608) rotate(-58.93)" fill="#b39696"/>
      <rect id="Rectangle_51" data-name="Rectangle 51" width="3.129" height="3.439" transform="translate(198.838 162.381) rotate(121.07)" fill="#dbb8b8"/>
      <rect id="Rectangle_52" data-name="Rectangle 52" width="3.129" height="3.439" transform="translate(197.22 165.048) rotate(121.07)" fill="#f2cbcb"/>
      <path id="Path_73" data-name="Path 73" d="M1127.351,1038.419l-12.061-5.439,13.676,2.759Z" transform="translate(-978.1 -905.917)" fill="#deccc6"/>
      <path id="Path_74" data-name="Path 74" d="M1125.736,1041.1l-10.446-8.12,12.061,5.439Z" transform="translate(-978.1 -905.917)" fill="#e3d1ca"/>
      <path id="Path_75" data-name="Path 75" d="M1125.736,1041.1l-10.446-8.12,8.831,10.8Z" transform="translate(-978.1 -905.917)" fill="#eddad3"/>
      <path id="Path_76" data-name="Path 76" d="M1117.1,1035.189l.991-1.645-2.8-.565Z" transform="translate(-978.1 -905.917)" fill="#eb4747"/>
      <path id="Path_77" data-name="Path 77" d="M1476.034,1297.437a1.374,1.374,0,0,0,.423-.1s.216-.153.377-.246a1.134,1.134,0,0,1,.123-.071,2.5,2.5,0,0,0,.7-.369,16.65,16.65,0,0,0,1.191-1.5l-.55-.694-.423-.723a16.876,16.876,0,0,0-2.418.514.765.765,0,0,0-.076.056,3.184,3.184,0,0,0-.413.507c-.038.04-.394.454-.369.615a.535.535,0,0,0,.3.423,1.255,1.255,0,0,0,.33.615.79.79,0,0,0,.431.55S1475.789,1297.4,1476.034,1297.437Z" transform="translate(-1296.61 -1137.815)" fill="#eea886"/>
      <path id="Path_78" data-name="Path 78" d="M1503.449,1154.677c-.423.164-.871,1.188-.539,3.2a8.67,8.67,0,0,0,1.353,3.576c.284.5,1.857,3.606,1.576,4.013s-2.952,3.042-3.106,3.256-3.133,2.91-3.133,2.91l1.517,2.121s6.433-5.027,6.935-5.527,2-1.556,1.448-3.309c-.565-1.781-1.578-5.951-1.758-6.273S1506.245,1153.591,1503.449,1154.677Z" transform="translate(-1318.536 -1015.724)" fill="#945aa0"/>
      <path id="Path_79" data-name="Path 79" d="M1335.188,1210.466s1.031-1.149,1.546-1.128.164.456.164.456.339-.437.706-.207-.07.719-.07.719a.425.425,0,0,1,.615.1c.272.369-.179.685-.179.685s.682-.1.536.455a2.4,2.4,0,0,1-1.26,1.389s-.29.114-.526-.254a.6.6,0,0,1-.818-.492s-.768-.178-.533-.774A.541.541,0,0,1,1335.188,1210.466Z" transform="translate(-1174.154 -1063.804)" fill="#eea886"/>
      <path id="Path_80" data-name="Path 80" d="M1469.7,1141.786s-.194-.882,2.568-1.087,4.631.416,4.683,1.208-7,2.771-7,2.771Z" transform="translate(-1292.311 -1003.574)" fill="#faa146"/>
      <path id="Path_81" data-name="Path 81" d="M1466.419,1064.761s-3.88-1.436-3.637,3.72,1.151,5.679,3.7,4.96,2.766-3.974,3.1-5.535S1467.689,1064.986,1466.419,1064.761Z" transform="translate(-1286.236 -936.849)" fill="#eea886"/>
      <path id="Path_82" data-name="Path 82" d="M1476.4,1115.134s.93.41,3.958-.924a13.7,13.7,0,0,1,.508-4.015c.594-1.939-4.059,2.583-4.059,2.583.049.035.059.228.031.492a5.435,5.435,0,0,1-.149.8C1476.513,1114.728,1476.552,1114.614,1476.4,1115.134Z" transform="translate(-1298.188 -976.432)" fill="#eea886"/>
      <path id="Path_83" data-name="Path 83" d="M1468.34,1062.693s.011-1.377-.562-1.5-.861.67-.861.67l-.461-.025s.412-1.4-.134-1.722-3.813-.04-4.222-.51.184-3.261,1.076-3.535,3.321-.829,4.871.547c0,0,1.328.573,1.383,1.669A11.777,11.777,0,0,1,1468.34,1062.693Z" transform="translate(-1285.531 -929.083)" fill="#163342"/>
      <path id="Path_84" data-name="Path 84" d="M1478.71,1129.232c3.006-.506,3.456-2.214,3.462-2.242a4.393,4.393,0,0,1-3.314,1.441A5.574,5.574,0,0,1,1478.71,1129.232Z" transform="translate(-1300.214 -991.585)" fill="#b07c63"/>
      <path id="Path_85" data-name="Path 85" d="M1501.6,1093.34c.172-.454,1.139-.4,1.041.323s-.9,1.829-1.22,1.621S1501.358,1093.966,1501.6,1093.34Z" transform="translate(-1319.998 -961.819)" fill="#eea886"/>
      <path id="Path_86" data-name="Path 86" d="M1110.9,1228.641h-15.4v-15.4h15.4Zm-13.924-1.476h12.448v-12.448h-12.448Z" transform="translate(-964.142 -1067.226)" fill="#ffdc94"/>
      <path id="Path_87" data-name="Path 87" d="M1093.781,1203.382l-5.421-5.111,1.686-1.79,3.846,3.625,8.428-6.926,1.562,1.9Z" transform="translate(-954.482 -1046.412)" fill="#ffdc94"/>
      <path id="Path_88" data-name="Path 88" d="M676.2,831.989a41.524,41.524,0,0,0-62.278-11.179v9.517a34.692,34.692,0,0,1,61.055,21.182c.015.429.025.861.025,1.285a34.685,34.685,0,0,1-61.082,22.518v9.534a41,41,0,0,0,8.1,5.219h36.6c.861-.419,1.7-.873,2.536-1.353A41.5,41.5,0,0,0,676.2,831.989Z" transform="translate(-541.799 -714.752)" fill="#3f444f" opacity="0.1"/>
      <rect id="Rectangle_53" data-name="Rectangle 53" width="67.052" height="11.4" transform="matrix(-0.768, 0.64, -0.64, -0.768, 58.806, 172.412)" fill="#494f5c"/>
      <rect id="Rectangle_54" data-name="Rectangle 54" width="3.582" height="8.652" transform="matrix(-0.768, 0.64, -0.64, -0.768, 60.679, 169.067)" fill="#494f5c"/>
      <path id="Path_89" data-name="Path 89" d="M409.537,873.666a41.49,41.49,0,1,0,15.044-56.714A41.491,41.491,0,0,0,409.537,873.666Zm5.892-3.422a34.677,34.677,0,1,1,64.641-18.728h0a34.678,34.678,0,0,1-64.641,18.728Z" transform="translate(-357.63 -714.756)" fill="#3bb8fa"/>
      <path id="Path_90" data-name="Path 90" d="M472.5,890.95s36.115-27.423,67.715,9.147h0A34.678,34.678,0,0,0,472.5,890.95Z" transform="translate(-417.774 -763.337)" fill="#c2c2c2" opacity="0.3"/>
      <path id="Path_91" data-name="Path 91" d="M840.372,640.709a15.912,15.912,0,0,0,.578-2.48c-.084-.237-1.645-1.75-1.631-1.934s2.089-1.459,2.3-1.828.6.7.672,1.626.224,2.394.22,2.592-.485,2.718-.485,2.718Z" transform="translate(-739.473 -559.58)" fill="#de9d7d"/>
      <path id="Path_92" data-name="Path 92" d="M799,687.428s.039.233.1.582h0c.037.216.08.478.123.756.145.861.32,1.894.386,2.249a9.047,9.047,0,0,0,1.047,2.877,1.659,1.659,0,0,0,1.057.46c.327.031,1.191.369,2.2-1.23s2.615-7.209,2.706-7.513.331-1.161.331-1.161l-2.078-.738s-1.492,4.052-1.7,4.61c-.16.424-1.095,2.125-1.141,2.178s-.165-4.647-.165-4.647Z" transform="translate(-704.113 -602.831)" fill="#e55353"/>
      <path id="Path_93" data-name="Path 93" d="M855.349,952.881a16.444,16.444,0,0,0,2.18,3.023c.88.576.328,1.159-.089,1.159s-2.547.153-3.017-.38-.7-2.129-1.139-2.547-.888-2.078.213-2.481C854.468,951.3,855.349,952.881,855.349,952.881Z" transform="translate(-751.305 -837.771)" fill="#323657"/>
      <path id="Path_94" data-name="Path 94" d="M859.1,952.1s1.756,3.043,2.059,3.492-.571.449-1.107.236-1.9-2.4-2.091-2.794a1.465,1.465,0,0,1-.042-1.019Z" transform="translate(-755.722 -838.137)" fill="#eea886"/>
      <path id="Path_95" data-name="Path 95" d="M825.97,939.83l.406,3.119.214.008-.067-2.244Z" transform="translate(-724.368 -824.225)" fill="#323657"/>
      <path id="Path_96" data-name="Path 96" d="M731.726,952.93a16.4,16.4,0,0,0,2.181,3.023c.878.576.327,1.159-.09,1.159s-2.548.153-3.017-.38-.7-2.129-1.139-2.547-.9-2.116.213-2.485C730.852,951.386,731.726,952.93,731.726,952.93Z" transform="translate(-642.883 -837.819)" fill="#323657"/>
      <path id="Path_97" data-name="Path 97" d="M735.633,952.11s1.663,3.037,1.968,3.486-.569.449-1.107.236-1.9-2.4-2.091-2.794a1.465,1.465,0,0,1-.042-1.019Z" transform="translate(-647.361 -838.137)" fill="#eea886"/>
      <path id="Path_98" data-name="Path 98" d="M702.39,939.83l.406,3.119.214.008-.066-2.244Z" transform="translate(-615.989 -824.225)" fill="#323657"/>
      <path id="Path_99" data-name="Path 99" d="M694.58,754.309l13.871,6.32a2.642,2.642,0,0,1,.7.392h0a2.79,2.79,0,0,1,.425.4,2.564,2.564,0,0,1,.593,1.427c.541,5.365,4.551,13.88,4.551,13.88,1.288.629,1.189.083,1.189.083-.812-2.605-1.8-13.344-2.152-17.66-.075-.915-.123-1.541-.132-1.742,0-.136-.155-.314-.412-.523-1.9-1.544-9.73-4.738-9.73-4.738C697.606,752,694.58,754.309,694.58,754.309Z" transform="translate(-612.538 -662.847)" fill="#eea886"/>
      <path id="Path_100" data-name="Path 100" d="M685.8,749.66a4.362,4.362,0,0,0,4.182,3.864h6.487a40.419,40.419,0,0,0-2.362,6.989c-.694,3.394-2.34,9.4-2.34,9.4s.107.2,1.282.09c0,0,5.091-10.148,7.041-12.7a17.278,17.278,0,0,0,1.828-5.308c.07-.6.026-1.06-.2-1.247a16.312,16.312,0,0,0-1.432-.984c-2.032-1.28-5.561-3.253-7.527-3.69a53.675,53.675,0,0,1-5.658-1.7S685.374,745.911,685.8,749.66Z" transform="translate(-604.78 -656.029)" fill="#eea886"/>
      <path id="Path_101" data-name="Path 101" d="M692.08,755.19h-5.81s-4.225.111-4.72-3.631a7,7,0,0,1,1.552-5.289s1.968.528,4.442,1.124a19.157,19.157,0,0,1,4.466-.395s7.373,1.485,10.1,5.121C702.11,752.12,697.783,749.937,692.08,755.19Z" transform="translate(-601.061 -657.696)" fill="#323657"/>
      <path id="Path_102" data-name="Path 102" d="M818.346,588.036c-.022.421-.03.844-.036,1.251a3.6,3.6,0,0,0,.013.379,3.908,3.908,0,0,0,.751,2.019h0a2.433,2.433,0,0,0,2.564,1c1.939-.461,3.229-6.753,3.229-6.753-.53-2.46-3.813-2.605-5.13-1.722C818.7,584.9,818.427,586.453,818.346,588.036Z" transform="translate(-721.048 -515.133)" fill="#eea886"/>
      <path id="Path_103" data-name="Path 103" d="M692,642.968s.059.72,5.554,1.588l.432.07c.507.083.938.161,1.305.229,2.605.479,2.08.466,3.162-1.353a16.142,16.142,0,0,1,1.527-2.822,5.777,5.777,0,0,0,1.374-1.423c.293-.46,1.4-.163,2.433-1.068s.605-2.207.668-3.26a12.44,12.44,0,0,0-.589-3.953c-2.9-5.425-7.113-1.122-7.883-.343s-3.383,7.2-4.1,8.011C693.353,641.529,692,642.968,692,642.968Z" transform="translate(-610.275 -554.218)" fill="#e55353"/>
      <path id="Path_104" data-name="Path 104" d="M797.05,629.109s.429,5.281,1.69,5.877c1.3.615.843-4.58.843-4.58S798.52,628.226,797.05,629.109Z" transform="translate(-702.403 -554.761)" fill="#eea886"/>
      <path id="Path_105" data-name="Path 105" d="M857.425,579.475a11.346,11.346,0,0,1,.547,3.036,6.29,6.29,0,0,0,1.047-2.247c.174-1.074.685-2.8-.92-4.116S857.425,579.475,857.425,579.475Z" transform="translate(-755.116 -508.292)" fill="#163342"/>
      <path id="Path_106" data-name="Path 106" d="M806.11,616.5c0,1.3,1.393,2.037,1.5,1.417a1.432,1.432,0,0,1,.294-.363h0a1.2,1.2,0,0,0,.112-.123,1.741,1.741,0,0,1,.363-.289,6.275,6.275,0,0,1,1.279-.56l-1.4-3.838s-.264.3-.606.748A6.716,6.716,0,0,0,806.11,616.5Z" transform="translate(-710.348 -540.591)" fill="#eea886"/>
      <path id="Path_107" data-name="Path 107" d="M818.127,634.5a1.22,1.22,0,0,0,.112-.123,1.74,1.74,0,0,1,.363-.289,4.345,4.345,0,0,1-.751-2.02A3.858,3.858,0,0,0,818.127,634.5Z" transform="translate(-720.575 -557.543)" fill="#a77860"/>
      <path id="Path_108" data-name="Path 108" d="M776.991,818.713a1.126,1.126,0,0,1-.189-.311s-.037-.22-.071-.375c-.012-.049-.023-.091-.033-.123a2.123,2.123,0,0,1-.191-.641,13.994,13.994,0,0,1,.2-1.6l.738-.08.682-.174a14.251,14.251,0,0,1,1.119,1.748.563.563,0,0,1,.011.079,2.654,2.654,0,0,1-.058.546c0,.045-.04.5-.153.58a.449.449,0,0,1-.429.072,1.071,1.071,0,0,1-.563.169.667.667,0,0,1-.583.065S777.158,818.837,776.991,818.713Z" transform="translate(-684.385 -718.331)" fill="#ffb48f"/>
      <path id="Path_109" data-name="Path 109" d="M751.215,644.663s.724-2.727-1.169-2.686-2.029,2.4-2.084,2.872-.7,5.987-.627,7.031a35.29,35.29,0,0,0,.089,3.852,90.3,90.3,0,0,0,3.59,8.288c.055.028,1.722-.652,1.722-.652s-2.16-7.05-2.446-7.7A4.766,4.766,0,0,1,750,653.41C749.976,652.911,751.125,645.086,751.215,644.663Z" transform="translate(-658.788 -566.231)" fill="#e55353"/>
      <path id="Path_110" data-name="Path 110" d="M764.4,572.316s-.914,1.61-2.337,1.23-2.468-.009-2.639.59-1.391,3.813-2.68,3.709-2.229-2.062-2.952-1.679-1.517,2.55-2.46,1.968-.76-2.583,1.26-3.444,3.457-.861,4.045-1.992,2.054-4.2,3.455-4.8a3.937,3.937,0,0,1,4.22.475,3.053,3.053,0,0,1,1.341,3.335Z" transform="translate(-661.825 -500.905)" fill="#163342"/>
      <path id="Path_111" data-name="Path 111" d="M813.07,806.595h0a2.793,2.793,0,0,1,.425.4,9.13,9.13,0,0,0,.123-2.888A9.827,9.827,0,0,1,813.07,806.595Z" transform="translate(-716.453 -708.421)" fill="#b07c63"/>
      <path id="Path_112" data-name="Path 112" d="M739.93,693.246c.507.084.937.161,1.305.229h0a5.575,5.575,0,0,1-.4-1.23,51.117,51.117,0,0,1,.064-6.159c.257-2.546.236-2.365.236-2.365S739.38,688.96,739.93,693.246Z" transform="translate(-652.216 -602.838)" fill="#a63d3d"/>
      <path id="Path_113" data-name="Path 113" d="M799.82,712.171h0c.037.217.034.209.082.492a3.814,3.814,0,0,0,2.083-1.4,4.4,4.4,0,0,1-1.711.545A.565.565,0,0,0,799.82,712.171Z" transform="translate(-704.833 -626.992)" fill="#a63d3d"/>
      <path id="Path_114" data-name="Path 114" d="M839.406,1060.368a3.762,3.762,0,0,1,1.747,4.221c-.573,3.086-.828,3.5-.186,4.707s1.4,6.351.82,7.327-7.145-4.286-8.057-8.7.578-6.375,1.107-7.107S837.359,1059.328,839.406,1060.368Z" transform="translate(-734.318 -932.71)" fill="#0e2d3d"/>
      <path id="Path_115" data-name="Path 115" d="M696.54,990.47h9.768v8.57l-1.491-1.491H696.54Z" transform="translate(-610.859 -868.636)" fill="#78c2ff"/>
      <path id="Path_116" data-name="Path 116" d="M872.806,1594.582a5.845,5.845,0,0,0,.678,1.132c.325.423,1.335,2.164,1.779,2.284s1.819.369,1.941,1.133.182,1.314-1.172,1.374-2.245.142-2.892-.808a7.056,7.056,0,0,0-1.678-1.637v2.479h-.525a23.188,23.188,0,0,0-.384-2.763,3.134,3.134,0,0,1,.748-3.2C872.553,1593.541,872.806,1594.582,872.806,1594.582Z" transform="translate(-766.725 -1401.253)" fill="#163342"/>
      <path id="Path_117" data-name="Path 117" d="M879.717,1599.359s-1.213.3-1.678,0-2.046-2.974-2.57-3.135c0,0,.508-1.03,1.791-.281C877.257,1595.943,879.373,1598.915,879.717,1599.359Z" transform="translate(-771.177 -1402.615)" fill="#eea886"/>
      <path id="Path_118" data-name="Path 118" d="M1005.724,1243.909s.841.161,1.128-.234a2.743,2.743,0,0,1,.975-.674c.23-.107.814-.7.952-.409s-.916,1.02-1.107,1.218,1.032.284,1.244.476-.049,2.214-.881,2.053a7.835,7.835,0,0,1-1.77-.873,5.381,5.381,0,0,1-.615-.09Z" transform="translate(-885.344 -1092.899)" fill="#eea886"/>
      <path id="Path_119" data-name="Path 119" d="M1026.017,1256.25a18.951,18.951,0,0,1,2.647.834c.132.183.088.318-.149.267s-2.45-.557-2.45-.557,2.849,1.269,2.99,1.4c.081.075.013.339-.123.323s-3.025-1.107-3.025-1.107,2.657,1.191,2.743,1.332a.2.2,0,0,1-.246.276c-.2-.075-2.733-1.039-2.733-1.039a11.581,11.581,0,0,1,1.883,1.15c0,.1-.048.331-.525.06s-1.669-.788-1.669-.788Z" transform="translate(-902.63 -1104.945)" fill="#eea886"/>
      <path id="Path_120" data-name="Path 120" d="M820.3,1610.653a22.493,22.493,0,0,0,1.9,2.5s1.213.445,1.333,1.294.1,1.416-1.333,1.456-2.376-.217-2.64-1.087a3.979,3.979,0,0,0-.838-1.461v1.82H818.4s-.081-1.759-.1-2.082-.232-1.567.449-2.118A1.9,1.9,0,0,1,820.3,1610.653Z" transform="translate(-720.995 -1415.711)" fill="#163342"/>
      <path id="Path_121" data-name="Path 121" d="M806.52,1290.187a12.708,12.708,0,0,0-2.175,4.863c-.465,2.639.274,11.494.255,12.793s-1.23,4.551-.992,7.012,1.2,14.682,1.2,14.682l2.621-.516s-.152-12.463,0-13.495.455-4.788.517-5.213,3.85-11.573,3.85-13.475S810.64,1287.085,806.52,1290.187Z" transform="translate(-708.127 -1134.079)" fill="#1d3b54"/>
      <path id="Path_122" data-name="Path 122" d="M855.422,1298.4s2.811,10.725,3.144,12.211a31.051,31.051,0,0,1,.817,3.343,22.067,22.067,0,0,1-.544,3.813l-3.567,17.068h-3.4s1.893-10.24,1.945-12.242,1.6-4.856,1.293-5.7-4.883-10.645-4.883-10.645S846.76,1295.287,855.422,1298.4Z" transform="translate(-748.437 -1141.422)" fill="#1d3b54"/>
      <path id="Path_123" data-name="Path 123" d="M825.733,1613.491a1.936,1.936,0,0,1-2.281-.22,7.054,7.054,0,0,1-1.172-1.958l1.552-.312Z" transform="translate(-724.53 -1416.059)" fill="#eea886"/>
      <path id="Path_124" data-name="Path 124" d="M880.645,1154.2a3.508,3.508,0,0,1,2.033,1.047,13.428,13.428,0,0,1,1.926,2.934c.229.5,3.444,5.136,3.61,5.241s1.782.644,2.853,1c1.652.556,4.963,1.76,4.963,1.76l-.657,2.081s-6.231-2.037-7.786-2.421c-1.907-.47-6.3-6.1-6.3-6.1S878.018,1155.909,880.645,1154.2Z" transform="translate(-774.82 -1015.448)" fill="#285173"/>
      <path id="Path_125" data-name="Path 125" d="M814.177,1147.036a15.72,15.72,0,0,0,2.022.813c.522.1,2.543,2.73,2.9,3.69s0,2.4-.729,4.086-.042,2.251-.369,3.936a70.63,70.63,0,0,0-.164,8.942c.063.937-9.757,2.361-11.694.651,0,0,1.311-5.693,2.866-7.316.336-.352.3-2.694.07-3.277s-2.813-4.94-2.813-4.94-.19-4.419.937-5.29c.984-.761,3.65-1.032,4.129-1.2A8.117,8.117,0,0,1,814.177,1147.036Z" transform="translate(-710.375 -1009.097)" fill="#ff7e55"/>
      <path id="Path_126" data-name="Path 126" d="M851.851,1118.9s-.045.413-.1.972c-.02.221-.042.465-.062.715a16.858,16.858,0,0,0-.079,1.968s-1.56,1.564-3.334-1.824a4.646,4.646,0,0,0,.185-3.3C847.9,1115.53,851.851,1118.9,851.851,1118.9Z" transform="translate(-747.331 -982.693)" fill="#eea886"/>
      <path id="Path_127" data-name="Path 127" d="M907.519,1193.845a12.761,12.761,0,0,0-.023-4.015,9.692,9.692,0,0,1-.716,3.159Z" transform="translate(-798.635 -1046.695)" fill="#183c59"/>
      <path id="Path_128" data-name="Path 128" d="M838.54,1148.319s1.073,3.168,4.019,2.935,1.4-2.675,1.4-2.675a6.751,6.751,0,0,0-.941-.461c-.2-.041-3.256-.078-3.256-.078Z" transform="translate(-738.789 -1010.045)" fill="#eea886"/>
      <path id="Path_129" data-name="Path 129" d="M882.56,1152.42a29.016,29.016,0,0,1,1.542,8.61c0,4.344.123,11.44.663,13.671s2.071,9.156,2.071,9.156l1.2-.615s-2.888-11.042-3.107-11.838a77.287,77.287,0,0,1,.369-9.913c.2-.7,1.089-3.839.952-4.709a7.967,7.967,0,0,0-2.856-4.114Z" transform="translate(-777.395 -1013.887)" fill="#285173"/>
      <path id="Path_130" data-name="Path 130" d="M796.842,1149.22a44.317,44.317,0,0,1,1.443,7c.492,3.936-1.492,22.183-2.818,26.323l-5.137-.829s1.107-12.9,2.606-15.253,1.979-4.428.359-9.325.71-7.328.71-7.328S796.392,1149.272,796.842,1149.22Z" transform="translate(-696.51 -1011.08)" fill="#285173"/>
      <path id="Path_131" data-name="Path 131" d="M766.924,1199.264l-6.229,10.789-6.925-4,5.958-10.945Z" transform="translate(-661.049 -1048.105)" fill="#616161"/>
      <path id="Path_132" data-name="Path 132" d="M771.312,1205.589l-5.531,9.582-6.151-3.55,5.292-9.721Z" transform="translate(-666.188 -1054.06)" fill="#e0cec7"/>
      <path id="Path_133" data-name="Path 133" d="M819.593,1209.868l.389-.673-2.486-1.435-.486.616Z" transform="translate(-716.511 -1059.198)" fill="#616161"/>
      <path id="Path_134" data-name="Path 134" d="M842.882,1289.4a1.276,1.276,0,0,1-.407-.059s-.218-.123-.378-.207a.979.979,0,0,0-.123-.057,2.381,2.381,0,0,1-.694-.294,15.752,15.752,0,0,1-1.251-1.32l.461-.7.337-.717a15.973,15.973,0,0,1,2.325.281c.027.015.054.031.078.047a3.082,3.082,0,0,1,.433.443c.039.035.409.4.4.55a.506.506,0,0,1-.246.424,1.227,1.227,0,0,1-.258.615.747.747,0,0,1-.36.554S843.11,1289.348,842.882,1289.4Z" transform="translate(-740.096 -1131.08)" fill="#eea886"/>
      <path id="Path_135" data-name="Path 135" d="M786.062,1153.747a2.611,2.611,0,0,0-2.975,1.542,9.655,9.655,0,0,0-1.23,3.991c-.136.96-.754,3.584-.817,3.856s-1.461,3.5-.819,4.631,7.191,4.477,7.149,4.727,1.134-2.526,1.134-2.526a28.046,28.046,0,0,1-3.083-1.931c-.7-.738-2.192-1.534-1.887-2.45.359-1.076,1.437-4.707,1.688-5.239S787.656,1154.425,786.062,1153.747Z" transform="translate(-687.496 -1014.995)" fill="#285173"/>
      <path id="Path_136" data-name="Path 136" d="M847.528,1066.086s3.368,1.058,1.54,6.87-6.428-.674-5.947-4.215S847.528,1066.086,847.528,1066.086Z" transform="translate(-742.776 -938.086)" fill="#eea987"/>
      <path id="Path_137" data-name="Path 137" d="M847.521,1066.134a7.6,7.6,0,0,1-4.474,1.845,7.091,7.091,0,0,0-1.159,1.758s-2.5-4.26.573-6.812S848.65,1065.082,847.521,1066.134Z" transform="translate(-740.886 -934.743)" fill="#0e2d3d"/>
      <path id="Path_138" data-name="Path 138" d="M850.083,1102.022c-.022-.423-.283-1.385-.911-1.116s.038,2.229.455,2.109C849.627,1103.014,850.134,1103.023,850.083,1102.022Z" transform="translate(-747.887 -968.668)" fill="#eea987"/>
      <path id="Path_139" data-name="Path 139" d="M858.4,1130.115c-.02.221-.042.465-.061.715,0,0-1.486-.088-2.48-2.3C855.924,1128.626,857.014,1130.227,858.4,1130.115Z" transform="translate(-753.979 -992.936)" fill="#a77860"/>
    </g>
  </g>
</svg>
