<?xml version="1.0" encoding="utf-8"?>
<!-- Generator: Adobe Illustrator 23.0.6, SVG Export Plug-In . SVG Version: 6.00 Build 0)  -->
<svg version="1.1" id="Layer_1" xmlns="http://www.w3.org/2000/svg" xmlns:xlink="http://www.w3.org/1999/xlink" x="0px" y="0px"
	 viewBox="0 0 511.7 317.9" style="enable-background:new 0 0 511.7 317.9;" xml:space="preserve">
<style type="text/css">
	.st0{fill:#F0C419;}
	.st1{fill:#24AE5F;}
	.st2{fill:#71C285;}
	.st3{fill:#C03A2B;}
	.st4{fill:#E64C3C;}
	.st5{fill:#ECF0F1;}
	.st6{fill:#BDC3C7;}
</style>
<path id="Shape" class="st0" d="M325.3,113.2c51.9,25.2,86.1,76.7,89.2,134.3c0.2,4.8,4,8.5,8.8,8.6h79.5c2.4,0,4.7-0.9,6.3-2.6
	c1.7-1.7,2.6-4,2.5-6.4C506.9,109.2,393.8,0,255.8,0S4.8,109.2,0,247.1c-0.1,2.4,0.9,4.7,2.5,6.4s4,2.7,6.3,2.6h79.5
	c4.8,0,8.6-3.8,8.8-8.6c4.5-84.3,74.2-150.4,158.7-150.3c13.6,0,27.2,1.7,40.3,5.2L325.3,113.2z"/>
<path class="st1" d="M511.7,247.1c0.1,2.4-0.8,4.7-2.5,6.4c-1.7,1.7-3.9,2.6-6.3,2.6h-79.5c-4.8,0-8.6-3.8-8.8-8.6
	c-2.1-39.1-18.5-76.1-46.3-103.8L436.9,75C482.8,120.8,509.5,182.3,511.7,247.1L511.7,247.1z"/>
<path class="st2" d="M436.9,75l-68.7,68.7c-12.5-12.5-27-22.8-42.9-30.5l-29.1-10.8c-13.2-3.5-26.7-5.2-40.3-5.2V0.1
	C323.8,0,388.9,27,436.9,75L436.9,75z"/>
<path class="st0" d="M255.8,0.1v97.1c-42.1,0-82.6,16.7-112.4,46.5L74.8,75C122.8,27,187.9,0,255.8,0.1z"/>
<path class="st3" d="M143.5,143.7c-27.7,27.7-44.2,64.7-46.3,103.8c-0.2,4.8-4.1,8.5-8.8,8.6H8.9c-2.4,0-4.7-0.9-6.3-2.6
	c-1.7-1.7-2.6-4-2.5-6.4c2.1-64.8,28.9-126.3,74.8-172L143.5,143.7z"/>
<path class="st4" d="M248.2,194.8l48-92.4l25.2-48.6c2-4,6.7-5.8,10.9-4.2c4.2,1.6,6.5,6,5.5,10.3l-12.4,53.2l-23.7,101.4"/>
<circle id="Oval" class="st5" cx="255.8" cy="256.1" r="61.8"/>
<circle class="st6" cx="255.8" cy="256.1" r="17.7"/>
</svg>
