<svg id="icons" enable-background="new 0 0 64 64" height="512" viewBox="0 0 64 64" width="512" xmlns="http://www.w3.org/2000/svg"><g fill="#ffce54"><path d="m35.5 44.67c3.51 1.39 6 4.82 6 8.83 0 5.25-4.261 9.5-9.5 9.5-5.25 0-9.5-4.25-9.5-9.5 0-4.01 2.479-7.44 6-8.83 1.09-.43 2.27-.67 3.5-.67 1.229 0 2.41.24 3.5.67z"/><path d="m43.5 2c1.1 0 2 .9 2 2 0 1.11-.9 2-2 2-1.11 0-2-.89-2-2 0-1.1.89-2 2-2z"/><path d="m36.5 12c1.6 0 2.91 1.26 2.989 2.85-1.899.08-3.909.13-5.989.14.01-1.65 1.34-2.99 3-2.99z"/><path d="m25.42 9.11c-.92 1.15-2.33 1.89-3.92 1.89-1.38 0-2.63-.56-3.53-1.46h-.01c-.9-.9-1.46-2.16-1.46-3.54 0-2.76 2.229-5 5-5 2.76 0 5 2.24 5 5 0 1.17-.4 2.26-1.08 3.11z"/></g><path d="m36.5 12c-1.66 0-2.99 1.34-3 2.99-.49.01-1 .01-1.5.01-13.53 0-24.5-1.34-24.5-3 0-1.01 4.14-1.91 10.46-2.46h.01c.9.9 2.15 1.46 3.53 1.46 1.59 0 3-.74 3.92-1.89 2.1-.07 4.3-.11 6.58-.11 13.529 0 24.5 1.35 24.5 3 0 1.34-7.141 2.47-17.011 2.85-.079-1.59-1.389-2.85-2.989-2.85z" fill="#da4453"/><path d="m39.489 14.85c9.87-.38 17.011-1.51 17.011-2.85v7l-21 20v5.67c-1.09-.43-2.271-.67-3.5-.67-1.23 0-2.41.24-3.5.67v-5.67l-21-20v-7c0 1.66 10.97 3 24.5 3 .5 0 1.01 0 1.5-.01 2.08-.01 4.09-.06 5.989-.14z" fill="#ed5565"/><path d="m33.53 3.996c-.553 0-1.005-.447-1.005-1s.442-1 .994-1h.011c.552 0 1 .447 1 1s-.448 1-1 1z" fill="#ffce54"/><path d="m51.53 8.002c-.553 0-1.005-.447-1.005-1s.442-1 .994-1h.011c.552 0 1 .447 1 1s-.448 1-1 1z" fill="#ffce54"/><path d="m10.53 7.996c-.553 0-1.005-.447-1.005-1s.442-1 .994-1h.011c.552 0 1 .447 1 1s-.448 1-1 1z" fill="#ffce54"/><path d="m32 52.996h-1.5c-.553 0-1-.447-1-1s.447-1 1-1h1.5c.553 0 1 .447 1 1s-.447 1-1 1z" fill="#edab37"/><path d="m32 57.992c-.553 0-1-.447-1-1v-4.996c0-.553.447-1 1-1s1 .447 1 1v4.996c0 .553-.447 1-1 1z" fill="#edab37"/><path d="m33.5 57.992h-3c-.553 0-1-.447-1-1s.447-1 1-1h3c.553 0 1 .447 1 1s-.447 1-1 1z" fill="#edab37"/><path d="m32.03 49.996c-.553 0-1.005-.447-1.005-1s.442-1 .994-1h.011c.552 0 1 .447 1 1s-.448 1-1 1z" fill="#edab37"/></svg>