<?xml version="1.0"?>
<svg xmlns="http://www.w3.org/2000/svg" id="Filled" height="512px" viewBox="0 0 512 512" width="512px" class="hovered-paths"><g><path d="m392 488h-272a48 48 0 0 1 -48-48v-368a48 48 0 0 1 48-48h224l96 96v320a48 48 0 0 1 -48 48z" fill="#8690fa" data-original="#8690FA" class="" data-old_color="#8690fa" style="fill:#F9D6D6"/><path d="m136 136h80v96h-80z" fill="#fff" data-original="#FFF" class="" data-old_color="#fff" style="fill:#EBA2A2"/><path d="m72 360h368a0 0 0 0 1 0 0v80a48 48 0 0 1 -48 48h-272a48 48 0 0 1 -48-48v-80a0 0 0 0 1 0 0z" fill="#cfd2fc" data-original="#CFD2FC" class="" data-old_color="#cfd2fc" style="fill:#FFFFFF"/><path d="m440 120h-48a48 48 0 0 1 -48-48v-48z" fill="#cfd2fc" data-original="#CFD2FC" class="" data-old_color="#cfd2fc" style="fill:#FFFFFF"/><path d="m349.657 18.343a8 8 0 0 0 -5.657-2.343h-224a56.064 56.064 0 0 0 -56 56v368a56.064 56.064 0 0 0 56 56h272a56.064 56.064 0 0 0 56-56v-320a8 8 0 0 0 -2.343-5.657zm2.343 24.97 68.687 68.687h-28.687a40.045 40.045 0 0 1 -40-40zm-232-11.313h216v40a56.064 56.064 0 0 0 56 56h40v224h-352v-280a40.045 40.045 0 0 1 40-40zm272 448h-272a40.045 40.045 0 0 1 -40-40v-72h352v72a40.045 40.045 0 0 1 -40 40z" data-original="#000000" class="hovered-path active-path" data-old_color="#000000" style="fill:#EF4C4C"/><path d="m336 384h-32a8 8 0 0 0 -8 8v64a8 8 0 0 0 16 0v-24h8a8 8 0 0 0 0-16h-8v-16h24a8 8 0 0 0 0-16z" data-original="#000000" class="hovered-path active-path" data-old_color="#000000" style="fill:#EF4C4C"/><path d="m192 384h-16a8 8 0 0 0 -8 8v64a8 8 0 0 0 16 0v-24h8a24 24 0 0 0 0-48zm0 32h-8v-16h8a8 8 0 0 1 0 16z" data-original="#000000" class="hovered-path active-path" data-old_color="#000000" style="fill:#EF4C4C"/><path d="m240 384a8 8 0 0 0 -8 8v64a8 8 0 0 0 8 8 40 40 0 0 0 0-80zm8 62.629v-45.258a24 24 0 0 1 0 45.258z" data-original="#000000" class="hovered-path active-path" data-old_color="#000000" style="fill:#EF4C4C"/><path d="m248 176h128a8 8 0 0 0 0-16h-128a8 8 0 0 0 0 16z" data-original="#000000" class="hovered-path active-path" data-old_color="#000000" style="fill:#EF4C4C"/><path d="m248 208h32a8 8 0 0 0 0-16h-32a8 8 0 0 0 0 16z" data-original="#000000" class="hovered-path active-path" data-old_color="#000000" style="fill:#EF4C4C"/><path d="m248 240h128a8 8 0 0 0 0-16h-128a8 8 0 0 0 0 16z" data-original="#000000" class="hovered-path active-path" data-old_color="#000000" style="fill:#EF4C4C"/><path d="m136 272h184a8 8 0 0 0 0-16h-184a8 8 0 0 0 0 16z" data-original="#000000" class="hovered-path active-path" data-old_color="#000000" style="fill:#EF4C4C"/><path d="m376 192h-64a8 8 0 0 0 0 16h64a8 8 0 0 0 0-16z" data-original="#000000" class="hovered-path active-path" data-old_color="#000000" style="fill:#EF4C4C"/><path d="m376 256h-24a8 8 0 0 0 0 16h24a8 8 0 0 0 0-16z" data-original="#000000" class="hovered-path active-path" data-old_color="#000000" style="fill:#EF4C4C"/><path d="m136 304h48a8 8 0 0 0 0-16h-48a8 8 0 0 0 0 16z" data-original="#000000" class="hovered-path active-path" data-old_color="#000000" style="fill:#EF4C4C"/><path d="m296 288h-80a8 8 0 0 0 0 16h80a8 8 0 0 0 0-16z" data-original="#000000" class="hovered-path active-path" data-old_color="#000000" style="fill:#EF4C4C"/><path d="m376 288h-48a8 8 0 0 0 0 16h48a8 8 0 0 0 0-16z" data-original="#000000" class="hovered-path active-path" data-old_color="#000000" style="fill:#EF4C4C"/><path d="m136 240h80a8 8 0 0 0 8-8v-96a8 8 0 0 0 -8-8h-80a8 8 0 0 0 -8 8v96a8 8 0 0 0 8 8zm8-96h64v80h-64z" data-original="#000000" class="hovered-path active-path" data-old_color="#000000" style="fill:#EF4C4C"/><path d="m248 144h64a8 8 0 0 0 0-16h-64a8 8 0 0 0 0 16z" data-original="#000000" class="hovered-path active-path" data-old_color="#000000" style="fill:#EF4C4C"/></g> </svg>
