<?xml version="1.0" encoding="iso-8859-1"?>
<!-- Generator: Adobe Illustrator 19.0.0, SVG Export Plug-In . SVG Version: 6.00 Build 0)  -->
<svg version="1.1" id="Layer_1" xmlns="http://www.w3.org/2000/svg" xmlns:xlink="http://www.w3.org/1999/xlink" x="0px" y="0px"
	 viewBox="0 0 512 512" style="enable-background:new 0 0 512 512;" xml:space="preserve">
<g>
	<rect x="73.388" y="310.254" style="fill:#314A5F;" width="385.823" height="104.372"/>
	<rect x="40.698" y="446.477" style="fill:#314A5F;" width="49.887" height="31.507"/>
	<rect x="421.415" y="446.477" style="fill:#314A5F;" width="49.887" height="31.507"/>
</g>
<path style="fill:#FCD577;" d="M512,209.212v240.193H383.999V395.58h28.239c10.503,0,19.023-8.52,19.023-19.023v-26.283
	c0-10.503-8.52-19.023-19.023-19.023H99.762c-10.503,0-19.023,8.52-19.023,19.023v26.283c0,10.503,8.52,19.023,19.023,19.023h28.239
	v53.825H0V209.212c0-19.601,15.898-35.498,35.498-35.498h29.486h382.032h29.473C496.102,173.714,512,189.613,512,209.212z"/>
<rect x="122.9" y="331.246" style="fill:#CFDCE5;" width="266.206" height="163.676"/>
<rect x="122.9" y="331.246" style="fill:#BAC6CC;" width="266.206" height="19.061"/>
<g>
	<rect x="237.568" y="360.095" style="fill:#314A5F;" width="106.975" height="17.591"/>
	<rect x="167.464" y="360.095" style="fill:#314A5F;" width="40.792" height="17.591"/>
	<rect x="167.464" y="402.899" style="fill:#314A5F;" width="177.08" height="17.591"/>
	<rect x="307.931" y="445.703" style="fill:#314A5F;" width="36.612" height="17.591"/>
	<rect x="167.464" y="445.703" style="fill:#314A5F;" width="111.15" height="17.591"/>
</g>
<polyline style="fill:#EAC36E;" points="420.712,173.718 420.712,41.705 389.108,41.705 122.902,41.705 91.285,41.705 
	91.285,173.718 "/>
<rect x="122.9" y="17.078" style="fill:#CFDCE5;" width="266.206" height="163.676"/>
<path style="fill:#FF6F52;" d="M64.988,173.711v74.022c0,23.642,19.174,42.828,42.816,42.828h296.392
	c23.642,0,42.816-19.186,42.816-42.828v-74.022H64.988z"/>
<g>
	<path style="fill:#CFDCE5;" d="M304.574,211.785c10.87,0,19.692,8.822,19.692,19.692c0,10.87-8.822,19.692-19.692,19.692
		c-10.87,0-19.692-8.822-19.692-19.692C284.882,220.607,293.704,211.785,304.574,211.785z"/>
	<path style="fill:#CFDCE5;" d="M376.779,211.785c10.87,0,19.692,8.822,19.692,19.692c0,10.87-8.822,19.692-19.692,19.692
		c-10.87,0-19.692-8.822-19.692-19.692C357.087,220.607,365.909,211.785,376.779,211.785z"/>
</g>
<g>
</g>
<g>
</g>
<g>
</g>
<g>
</g>
<g>
</g>
<g>
</g>
<g>
</g>
<g>
</g>
<g>
</g>
<g>
</g>
<g>
</g>
<g>
</g>
<g>
</g>
<g>
</g>
<g>
</g>
</svg>
