<svg id="Layer_1" height="512" viewBox="0 0 512 512" width="512" xmlns="http://www.w3.org/2000/svg" data-name="Layer 1"><path d="m383.62 416.12a11.226 11.226 0 0 0 4.35-2.7l47.33-47.33a11.3 11.3 0 0 0 3.31-8.01v-258.07a9.427 9.427 0 0 0 -9.43-9.43h-31.7v-23.65h-62.24v-16.98a33.934 33.934 0 0 0 -1.93-11.32h130.19a18.87 18.87 0 0 1 18.86 18.87v392.32a18.868 18.868 0 0 1 -18.86 18.86h-266.08c17.89-12.33 36.03-29.32 47.55-51.95h135a11.228 11.228 0 0 0 3.65-.61z" fill="#e48e66"/><path d="m438.61 100.01v258.07a11.449 11.449 0 0 1 -1.08 4.84l-1.18-.38h-33.87a18.855 18.855 0 0 0 -18.86 18.86v34.72a11.228 11.228 0 0 1 -3.65.61h-135a112.512 112.512 0 0 0 12.2-51.69v-82.41l-.75-.32a551.969 551.969 0 0 1 -92.46-50.74v-131.56a9.427 9.427 0 0 1 9.43-9.43h31.7v21.61h192.39v-21.61h31.7a9.427 9.427 0 0 1 9.43 9.43z" fill="#6fe3ff"/><path d="m436.35 362.54 1.18.38a11.382 11.382 0 0 1 -2.23 3.17l-47.33 47.33a11.226 11.226 0 0 1 -4.35 2.7v-34.72a18.855 18.855 0 0 1 18.86-18.86z" fill="#cc7350"/><path d="m397.48 90.58v21.61h-192.39v-45.26h62.25v-16.98a33.934 33.934 0 0 1 1.93-11.32h.01a33.95 33.95 0 0 1 64.02 0h.01a33.934 33.934 0 0 1 1.93 11.32v16.98h62.24z" fill="#f8ec7d"/><path d="m139.08 38.63h130.19a33.934 33.934 0 0 0 -1.93 11.32v16.98h-62.25v23.65h-31.7a9.427 9.427 0 0 0 -9.43 9.43v131.56q-10.44-7.11-20.56-14.7-11.385 8.535-23.18 16.48v-175.85a18.864 18.864 0 0 1 18.86-18.87z" fill="#e48e66"/><path d="m163.96 231.57a551.969 551.969 0 0 0 92.46 50.74l.75.32v82.41a112.512 112.512 0 0 1 -12.2 51.69c-11.52 22.63-29.66 39.62-47.55 51.95a211.947 211.947 0 0 1 -55.99 27.32s-111.79-32.69-111.79-130.96v-82.41l.75-.32a552.186 552.186 0 0 0 58.45-29.36q16-9.27 31.38-19.6 11.79-7.935 23.18-16.48 10.125 7.59 20.56 14.7z" fill="#f8ec7d"/><g fill="#63316d"><path d="m463.5 32.63h-126.218a40.436 40.436 0 0 0 -7.743-10.936 39.953 39.953 0 0 0 -64.245 10.936h-126.214a24.893 24.893 0 0 0 -24.86 24.87v172.62c-9.258 6.143-18.784 12.075-28.385 17.637a548.325 548.325 0 0 1 -57.8 29.035l-.75.32a6 6 0 0 0 -3.643 5.518v82.41c0 42.172 20.177 79.231 58.351 107.173a206.24 206.24 0 0 0 57.755 29.546 6 6 0 0 0 3.315.015 216.231 216.231 0 0 0 56.2-27.094h264.237a24.889 24.889 0 0 0 24.86-24.86v-392.32a24.893 24.893 0 0 0 -24.86-24.87zm-190.16 34.3v-16.98a27.957 27.957 0 0 1 1.488-9.036c.039-.094.075-.189.109-.285a27.951 27.951 0 0 1 52.7 0c.034.1.071.194.11.289a27.957 27.957 0 0 1 1.488 9.036v16.976a6 6 0 0 0 6 6h56.24v33.26h-180.385v-33.26h56.25a6 6 0 0 0 6-6zm130.14 45.26v-15.61h25.7a3.434 3.434 0 0 1 3.43 3.43v256.53h-30.13a24.888 24.888 0 0 0 -24.86 24.86v29.33h-123.314a119.566 119.566 0 0 0 8.864-45.69v-82.41a6 6 0 0 0 -3.644-5.518l-.736-.314a547.3 547.3 0 0 1 -88.83-48.425v-128.363a3.434 3.434 0 0 1 3.43-3.43h25.7v15.61a6 6 0 0 0 6 6h192.39a6 6 0 0 0 6-6zm20.885 256.35-34.745 34.744v-21.884a12.875 12.875 0 0 1 12.86-12.86zm-285.285-323.91h122.62a40.411 40.411 0 0 0 -.355 5.32v10.98h-56.255a6 6 0 0 0 -6 6v17.65h-25.7a15.448 15.448 0 0 0 -15.43 15.43v120.063c-3.68-2.621-7.345-5.293-10.961-8a6 6 0 0 0 -7.2 0c-4.477 3.356-9.02 6.644-13.581 9.853v-164.426a12.879 12.879 0 0 1 12.862-12.87zm2.379 445.086a199.912 199.912 0 0 1 -52.38-27.187c-35.46-25.954-53.439-58.755-53.439-97.489v-78.467a560.83 560.83 0 0 0 56.208-28.431c10.747-6.226 21.419-12.891 31.718-19.812 6.632-4.463 13.286-9.154 19.83-13.98 5.675 4.184 11.439 8.271 17.184 12.183a559.394 559.394 0 0 0 90.586 50.043v78.464a107 107 0 0 1 -11.547 48.969c-9.521 18.7-24.866 35.434-45.607 49.73a211.329 211.329 0 0 1 -52.553 25.977zm334.9-39.9a12.875 12.875 0 0 1 -12.86 12.86h-248.336c14.223-12 25.422-25.376 33.411-39.95h131.4a17.235 17.235 0 0 0 2.276-.164 5.958 5.958 0 0 0 5.93-1.938 17.241 17.241 0 0 0 4.037-2.966l47.35-47.35a17.3 17.3 0 0 0 5.047-12.232v-258.066a15.448 15.448 0 0 0 -15.43-15.43h-25.7v-17.65a6 6 0 0 0 -6-6h-56.244v-10.98a40.241 40.241 0 0 0 -.355-5.32h122.615a12.879 12.879 0 0 1 12.86 12.87z"/><path d="m390.39 165.78a6 6 0 0 0 0 12h7.09a6 6 0 0 0 0-12z"/><path d="m274.37 177.78h93.94a6 6 0 0 0 0-12h-93.94a6 6 0 0 0 0 12z"/><path d="m205.09 177.78h36.75a6 6 0 0 0 0-12h-36.75a6 6 0 0 0 0 12z"/><path d="m397.48 216.63h-19.87a6 6 0 0 0 0 12h19.87a6 6 0 0 0 0-12z"/><path d="m362.1 222.63a6 6 0 0 0 -6-6h-27.08a6 6 0 0 0 0 12h27.08a6 6 0 0 0 6-6z"/><path d="m311.12 222.63a6 6 0 0 0 -6-6h-100.03a6 6 0 0 0 0 12h100.03a6 6 0 0 0 6-6z"/><path d="m397.48 270.65h-42.22a6 6 0 0 0 0 12h42.22a6 6 0 0 0 0-12z"/><path d="m279.74 270.65a6 6 0 0 0 0 12h54a6 6 0 0 0 0-12z"/><path d="m397.48 320.58h-119.12a6 6 0 0 0 0 12h119.12a6 6 0 0 0 0-12z"/><path d="m188.607 322.485-60.06 55.015-29.986-32.527a6 6 0 1 0 -8.822 8.134l34.04 36.92a6 6 0 0 0 8.463.358l64.47-59.05a6 6 0 0 0 -8.1-8.85z"/></g></svg>