<svg height="492pt" viewBox="0 -15 492 492" width="492pt" xmlns="http://www.w3.org/2000/svg"><path d="m486 44.421875v331.828125c0 11.046875-8.953125 20-20 20h-233.960938c-2.667968-13.148438-11.238281-24.332031-23.238281-30.328125l-32.761719-13.992187v-58.78125c14.238282-15.050782 22.160157-34.988282 22.132813-55.707032v-10.28125c5.671875-1.003906 10.679687-4.3125 13.828125-9.140625 3.144531-4.828125 4.152344-10.742187 2.78125-16.339843-1.59375-6.597657-7.253906-11.414063-14.019531-11.941407h-1.960938v-31.648437c.027344-21.230469-8.125-41.660156-22.761719-57.039063v-56.628906c-.003906-11.050781 8.953126-20.003906 20-20h49.410157v15.96875h181.140625v-15.96875h39.410156c11.046875-.003906 20.003906 8.949219 20 20zm-169.398438 107.539063v-49.992188h-91.140624v49.992188zm0 0" fill="#f8ec7d"/><path d="m426.589844 24.421875v15.96875h-181.140625v-34.390625h181.140625zm0 0" fill="#6fe3ff"/><path d="m225.460938 101.96875h91.140624v49.992188h-91.140624zm0 0" fill="#6fe3ff"/><path d="m232.769531 401.308594v55.429687h-226.769531v-55.429687c1.261719-15.171875 10.347656-28.585938 23.96875-35.386719l50.972656-21.761719v-1.339844c24.363282 11.390626 52.523438 11.390626 76.886719 0v1.339844l18.210937 7.769532 32.761719 13.992187c12 5.996094 20.570313 17.179687 23.238281 30.328125.351563 1.667969.59375 3.359375.730469 5.058594zm0 0" fill="#6fe3ff"/><path d="m157.828125 307.621094c-25.117187 14.636718-56.144531 14.726562-81.347656.238281-25.203125-14.492187-40.738281-41.347656-40.730469-70.417969v-10.28125c-5.671875-1.011718-10.671875-4.320312-13.820312-9.148437-3.144532-4.824219-4.160157-10.734375-2.800782-16.332031 1.601563-6.597657 7.261719-11.417969 14.03125-11.941407l.089844-.019531c.464844 1.917969 1.738281 3.542969 3.488281 4.453125l9.800781 5.027344c.5.253906 1.09375.242187 1.582032-.03125.488281-.273438.8125-.769531.859375-1.328125l2.210937-36.269532c9.78125.328126 19.574219.082032 29.328125-.742187 47.480469 42.3125 118.28125 29.832031 118.28125 29.832031v-.921875h1.960938c6.765625.527344 12.425781 5.34375 14.019531 11.941407 1.371094 5.597656.363281 11.511718-2.78125 16.339843-3.148438 4.828125-8.15625 8.136719-13.828125 9.140625v10.28125c.027344 20.71875-7.894531 40.65625-22.132813 55.707032-.539062.582031-1.097656 1.152343-1.660156 1.710937-4.945312 4.949219-10.507812 9.238281-16.550781 12.761719zm0 0" fill="#ffc9a4"/><path d="m80.519531 160.828125c-9.753906.824219-19.546875 1.070313-29.328125.742187l-2.210937 36.269532c-.046875.558594-.371094 1.054687-.859375 1.328125-.488282.273437-1.082032.285156-1.582032.03125l-9.800781-5.027344c-1.75-.910156-3.023437-2.535156-3.488281-4.453125-.085938-.359375-.144531-.726562-.171875-1.097656v-30.53125c0-45.761719 37.097656-82.859375 82.863281-82.859375 45.761719 0 82.859375 37.097656 82.859375 82.859375v32.570312s-70.800781 12.480469-118.28125-29.832031zm0 0" fill="#cc7350"/><path d="m157.828125 307.621094v35.199218c-24.363281 11.390626-52.523437 11.390626-76.886719 0v-32.582031c24.445313 12.082031 53.320313 11.097657 76.886719-2.617187zm0 0" fill="#efbd9c"/><g fill="#63316d"><path d="m466 18.421875h-33.410156v-12.421875c0-3.3125-2.6875-6-6-6h-181.140625c-3.3125 0-6 2.6875-6 6v12.421875h-43.410157c-14.351562.015625-25.984374 11.644531-26 26v43.148437c-26.847656-20.589843-63.058593-24.148437-93.398437-9.179687-30.34375 14.96875-49.558594 45.867187-49.5625 79.699219v26.890625c-6.890625 2.417969-12.082031 8.167969-13.777344 15.273437-3.207031 13.125 3.839844 26.589844 16.449219 31.441406v5.746094c-.117188 31.839844 17.234375 61.183594 45.191406 76.429688v26.332031l-47.328125 20.199219c-.109375.046875-.21875.101562-.324219.152344-15.457031 7.777343-25.78125 23.015624-27.2695308 40.257812-.0117187.167969-.0195312.332031-.0195312.5v55.429688c0 3.316406 2.6875 6 6 6h226.769531c3.3125 0 6-2.683594 6-6v-54.492188h227.230469c14.351562-.015625 25.984375-11.648438 26-26v-331.828125c-.015625-14.355469-11.648438-25.984375-26-26zm-214.550781-6.421875h169.140625v22.390625h-169.140625zm-212.371094 146.089844c-.007813-31.105469 18.734375-59.148438 47.480469-71.03125 28.746094-11.882813 61.820312-5.261719 83.777344 16.769531.554687 1.695313 1.835937 3.054687 3.492187 3.714844 12.257813 13.984375 19.003906 31.953125 18.972656 50.546875v27.3125c-14.875 1.609375-60.316406 4.042968-96.777343-20.179688 25.464843-3.394531 55.832031-11.128906 78.277343-28.339844 1.742188-1.292968 2.652344-3.421874 2.382813-5.570312-.269532-2.152344-1.675782-3.992188-3.683594-4.808594-2.007812-.820312-4.300781-.492187-6 .855469-24.65625 18.90625-60.675781 25.375-86.65625 27.464844-.199219.007812-.398438.023437-.601562.046875-9.394532.773437-18.824219 1.011718-28.246094.707031-3.285156-.160156-6.089844 2.34375-6.300782 5.625l-1.800781 29.640625-3.886719-2c-.214843-.113281-.371093-.308594-.429687-.542969zm2.671875 79.351562v-10.28125c0-2.917968-2.097656-5.410156-4.972656-5.910156-4.03125-.726562-7.585938-3.085938-9.824219-6.519531-2.238281-3.433594-2.960937-7.636719-1.996094-11.621094.652344-2.890625 2.636719-5.304687 5.351563-6.5 1.042968 1.183594 2.292968 2.167969 3.691406 2.898437l9.816406 5.039063c2.277344 1.160156 4.988282 1.109375 7.222656-.132813 2.234376-1.246093 3.703126-3.519531 3.921876-6.066406 0-.046875.003906-.09375.007812-.140625l1.859375-30.5c4.859375.039063 12.410156-.058593 21.640625-.707031 49 41.738281 118.40625 30.101562 121.371094 29.570312.621094-.113281 1.21875-.324218 1.773437-.625 3.636719.746094 6.507813 3.546876 7.339844 7.167969.976563 3.980469.261719 8.191407-1.976563 11.628907-2.238281 3.4375-5.800781 5.792968-9.839843 6.511718-2.871094.5-4.964844 2.992188-4.964844 5.90625v10.28125c.027344 19.203125-7.320313 37.679688-20.523437 51.621094-.492188.527344-1 1.046875-1.511719 1.558594-14.097657 14.113281-33.230469 22.039062-53.175781 22.027344-19.953126.011718-39.085938-7.90625-53.195313-22.015626-14.105469-14.105468-22.027344-33.242187-22.015625-53.191406zm122.078125 102.753906v-29.21875c2.132813-1.359374 4.203125-2.804687 6.210937-4.34375v36.214844zm-76.886719-20.851562c21.078125 7.703125 44.3125 6.996094 64.886719-1.964844v21.523438c-20.765625 8.632812-44.121094 8.632812-64.886719 0zm139.828125 131.398438h-214.769531v-49.171876c1.199219-12.917968 8.9375-24.316406 20.5-30.199218l49.964844-21.332032c23.640625 9.8125 50.210937 9.8125 73.851562 0l49.957032 21.332032c10.246093 5.226562 17.5625 14.824218 19.886718 26.089844v.03125c.28125 1.347656.484375 2.707031.601563 4.078124zm253.230469-74.492188c-.007812 7.730469-6.269531 13.992188-14 14h-229.320312c-3.957032-12.945312-13.074219-23.6875-25.199219-29.699219-.105469-.054687-.214844-.101562-.324219-.152343l-29.117188-12.429688v-52.519531c14.277344-15.945313 22.15625-36.605469 22.132813-58.007813v-5.738281c12.609375-4.851563 19.652344-18.320313 16.4375-31.445313-1.863281-7.847656-7.972656-13.992187-15.808594-15.898437v-26.269531c.03125-21.921875-8.082031-43.070313-22.761719-59.351563v-54.316406c.007813-7.730469 6.273438-13.992187 14-14h43.410157v9.96875c0 3.3125 2.6875 6 6 6h181.140625c3.3125 0 6-2.6875 6-6v-9.96875h33.410156c7.730469.007813 13.992188 6.269531 14 14zm0 0"/><path d="m436.578125 197.058594h-43.859375c-3.3125 0-6 2.6875-6 6 0 3.316406 2.6875 6 6 6h43.859375c3.316406 0 6-2.683594 6-6 0-3.3125-2.683594-6-6-6zm0 0"/><path d="m352.160156 209.058594h14.710938c3.3125 0 6-2.683594 6-6 0-3.3125-2.6875-6-6-6h-14.710938c-3.3125 0-6 2.6875-6 6 0 3.316406 2.6875 6 6 6zm0 0"/><path d="m229.210938 203.058594c0 3.316406 2.683593 6 6 6h94.230468c3.3125 0 6-2.683594 6-6 0-3.3125-2.6875-6-6-6h-94.230468c-3.316407 0-6 2.6875-6 6zm0 0"/><path d="m436.578125 261.949219h-14.886719c-3.316406 0-6 2.6875-6 6 0 3.316406 2.683594 6 6 6h14.886719c3.316406 0 6-2.683594 6-6 0-3.3125-2.683594-6-6-6zm0 0"/><path d="m400.941406 273.949219c3.3125 0 6-2.683594 6-6 0-3.3125-2.6875-6-6-6h-79.460937c-3.3125 0-6 2.6875-6 6 0 3.316406 2.6875 6 6 6zm0 0"/><path d="m300.441406 261.949219h-5.363281c-3.3125 0-6 2.6875-6 6 0 3.316406 2.6875 6 6 6h5.363281c3.3125 0 6-2.683594 6-6 0-3.3125-2.6875-6-6-6zm0 0"/><path d="m235.210938 261.949219c-3.316407 0-6 2.6875-6 6 0 3.316406 2.683593 6 6 6h34.019531c3.3125 0 6-2.683594 6-6 0-3.3125-2.6875-6-6-6zm0 0"/><path d="m436.578125 321.929688h-34.328125c-3.3125 0-6 2.6875-6 6s2.6875 6 6 6h34.328125c3.316406 0 6-2.6875 6-6s-2.683594-6-6-6zm0 0"/><path d="m380.710938 321.929688h-4.3125c-3.3125 0-6 2.6875-6 6s2.6875 6 6 6h4.3125c3.3125 0 6-2.6875 6-6s-2.6875-6-6-6zm0 0"/><path d="m359.511719 321.929688h-32.613281c-3.3125 0-6 2.6875-6 6s2.6875 6 6 6h32.613281c3.3125 0 6-2.6875 6-6s-2.6875-6-6-6zm0 0"/><path d="m300.441406 321.929688h-65.230468c-3.316407 0-6 2.6875-6 6s2.683593 6 6 6h65.230468c3.3125 0 6-2.6875 6-6s-2.6875-6-6-6zm0 0"/><path d="m322.601562 151.960938v-49.992188c0-3.3125-2.6875-6-6-6h-91.140624c-3.316407 0-6 2.6875-6 6v49.992188c0 3.3125 2.683593 6 6 6h91.140624c3.3125 0 6-2.6875 6-6zm-12-6h-79.140624v-37.992188h79.140624zm0 0"/><path d="m436.578125 145.960938h-3.867187c-3.316407 0-6 2.683593-6 6 0 3.3125 2.683593 6 6 6h3.867187c3.316406 0 6-2.6875 6-6 0-3.316407-2.683594-6-6-6zm0 0"/><path d="m364.339844 157.960938h42.53125c3.3125 0 6-2.6875 6-6 0-3.316407-2.6875-6-6-6h-42.53125c-3.3125 0-6 2.683593-6 6 0 3.3125 2.6875 6 6 6zm0 0"/><path d="m436.578125 95.96875h-42.859375c-3.3125 0-6 2.6875-6 6 0 3.316406 2.6875 6 6 6h42.859375c3.316406 0 6-2.683594 6-6 0-3.3125-2.683594-6-6-6zm0 0"/><path d="m364.339844 107.96875h3.53125c3.3125 0 6-2.683594 6-6 0-3.3125-2.6875-6-6-6h-3.53125c-3.3125 0-6 2.6875-6 6 0 3.316406 2.6875 6 6 6zm0 0"/></g></svg>